<?xml version="1.0" encoding="UTF-8"?>
<!DOCTYPE svg PUBLIC "-//W3C//DTD SVG 1.1//EN" "http://www.w3.org/Graphics/SVG/1.1/DTD/svg11.dtd">
<svg xmlns="http://www.w3.org/2000/svg" version="1.1" width="255px" height="174px" style="shape-rendering:geometricPrecision; text-rendering:geometricPrecision; image-rendering:optimizeQuality; fill-rule:evenodd; clip-rule:evenodd" xmlns:xlink="http://www.w3.org/1999/xlink">
<g><path style="opacity:0.946" fill="#33c68c" d="M 101.5,-0.5 C 103.167,-0.5 104.833,-0.5 106.5,-0.5C 107.12,6.50962 107.786,13.5096 108.5,20.5C 93.7212,22.2967 82.7212,29.63 75.5,42.5C 70.8523,40.3963 70.1856,37.2297 73.5,33C 71.8333,31.3333 70.1667,29.6667 68.5,28C 66.1902,27.5034 63.8568,27.3367 61.5,27.5C 70.308,11.7579 83.6413,2.42461 101.5,-0.5 Z"/></g>
<g><path style="opacity:0.946" fill="#2fc58d" d="M 106.5,-0.5 C 110.833,-0.5 115.167,-0.5 119.5,-0.5C 135.005,2.50544 148.172,9.83877 159,21.5C 163.054,26.9422 166.054,32.9422 168,39.5C 167.792,50.6908 162.292,54.5242 151.5,51C 148.036,46.5777 145.203,41.7443 143,36.5C 134.515,24.8431 123.015,19.5098 108.5,20.5C 107.786,13.5096 107.12,6.50962 106.5,-0.5 Z"/></g>
<g><path style="opacity:0.948" fill="#37c78a" d="M 61.5,27.5 C 63.8568,27.3367 66.1902,27.5034 68.5,28C 70.1667,29.6667 71.8333,31.3333 73.5,33C 70.1856,37.2297 70.8523,40.3963 75.5,42.5C 72.3862,52.3051 71.3862,62.3051 72.5,72.5C 70.5853,72.7845 68.9187,72.4511 67.5,71.5C 67.3083,68.3992 66.6416,65.3992 65.5,62.5C 65.7093,61.914 66.0426,61.414 66.5,61C 62.0582,57.3743 57.3915,54.2076 52.5,51.5C 53.1577,42.5154 56.1577,34.5154 61.5,27.5 Z"/></g>
<g><path style="opacity:0.972" fill="#39c88a" d="M 52.5,51.5 C 57.3915,54.2076 62.0582,57.3743 66.5,61C 66.0426,61.414 65.7093,61.914 65.5,62.5C 66.6416,65.3992 67.3083,68.3992 67.5,71.5C 61.0129,71.5979 54.6796,72.5979 48.5,74.5C 47.2842,72.5491 45.6175,71.0491 43.5,70C 45.5667,64.1177 44.5667,58.951 40.5,54.5C 44.4163,53.1876 48.4163,52.1876 52.5,51.5 Z"/></g>
<g><path style="opacity:0.948" fill="#3cc888" d="M 40.5,54.5 C 44.5667,58.951 45.5667,64.1177 43.5,70C 45.6175,71.0491 47.2842,72.5491 48.5,74.5C 42.9892,77.9225 38.3225,82.2558 34.5,87.5C 27.6072,85.2414 20.9405,82.5747 14.5,79.5C 19.8716,67.7961 28.5382,59.4628 40.5,54.5 Z"/></g>
<g><path style="opacity:0.962" fill="#6bd475" d="M 175.5,69.5 C 173.332,75.6478 169.165,80.6478 163,84.5C 162.517,85.448 162.351,86.448 162.5,87.5C 160.118,84.1382 157.451,83.8049 154.5,86.5C 153.733,85.828 153.066,84.9947 152.5,84C 153.337,82.9887 153.67,81.8221 153.5,80.5C 153.938,80.5654 154.272,80.3988 154.5,80C 151.907,76.1479 149.574,72.1479 147.5,68C 148.34,66.2326 149.673,64.8993 151.5,64C 150.944,63.6174 150.611,63.1174 150.5,62.5C 160.63,58.5448 168.964,60.8781 175.5,69.5 Z"/></g>
<g><path style="opacity:0.931" fill="#69d376" d="M 150.5,62.5 C 150.611,63.1174 150.944,63.6174 151.5,64C 149.673,64.8993 148.34,66.2326 147.5,68C 149.574,72.1479 151.907,76.1479 154.5,80C 154.272,80.3988 153.938,80.5654 153.5,80.5C 149.763,76.1312 145.43,72.4645 140.5,69.5C 143.095,66.1948 146.429,63.8615 150.5,62.5 Z"/></g>
<g><path style="opacity:0.955" fill="#66d277" d="M 140.5,69.5 C 145.43,72.4645 149.763,76.1312 153.5,80.5C 153.67,81.8221 153.337,82.9887 152.5,84C 153.066,84.9947 153.733,85.828 154.5,86.5C 150.19,93.4665 145.523,100.133 140.5,106.5C 135.622,101.382 130.289,96.7151 124.5,92.5C 129.097,84.3013 134.43,76.6347 140.5,69.5 Z"/></g>
<g><path style="opacity:0.955" fill="#6fd574" d="M 175.5,69.5 C 179.274,72.262 183.607,73.262 188.5,72.5C 186.639,77.5939 184.972,82.4273 183.5,87C 184.786,89.0223 185.786,91.1889 186.5,93.5C 187.602,94.1757 188.602,94.8423 189.5,95.5C 187.404,99.0392 187.071,102.873 188.5,107C 187.916,115.14 183.583,118.14 175.5,116C 173.333,115.167 171.833,113.667 171,111.5C 169.249,103.077 166.415,95.0773 162.5,87.5C 162.351,86.448 162.517,85.448 163,84.5C 169.165,80.6478 173.332,75.6478 175.5,69.5 Z"/></g>
<g><path style="opacity:0.955" fill="#73d572" d="M 188.5,72.5 C 203.918,73.6256 216.751,79.959 227,91.5C 228.094,93.0779 228.928,94.7446 229.5,96.5C 227.738,96.3573 226.071,96.6906 224.5,97.5C 223.526,99.7427 223.192,102.076 223.5,104.5C 219.116,103.576 215.782,104.909 213.5,108.5C 207.652,99.9135 199.652,95.5801 189.5,95.5C 188.602,94.8423 187.602,94.1757 186.5,93.5C 185.786,91.1889 184.786,89.0223 183.5,87C 184.972,82.4273 186.639,77.5939 188.5,72.5 Z"/></g>
<g><path style="opacity:0.961" fill="#41ca86" d="M 14.5,79.5 C 20.9405,82.5747 27.6072,85.2414 34.5,87.5C 30.0692,95.3234 28.7359,103.657 30.5,112.5C 25.2304,113.653 19.897,114.487 14.5,115C 13.6138,116.615 12.6138,118.115 11.5,119.5C 10.1127,117.123 9.27941,114.457 9,111.5C 7.11928,100.052 8.95261,89.3856 14.5,79.5 Z"/></g>
<g><path style="opacity:0.939" fill="#5cd07b" d="M 108.5,94.5 C 108.217,95.2891 107.717,95.9558 107,96.5C 106.737,104.533 106.237,112.533 105.5,120.5C 103.37,118.873 101.37,117.04 99.5,115C 98.552,114.517 97.552,114.351 96.5,114.5C 97.6602,113.735 98.6602,112.735 99.5,111.5C 98.2203,109.298 98.2203,107.132 99.5,105C 97.0909,100.325 94.0909,96.1579 90.5,92.5C 94.1936,90.5876 98.1936,90.0876 102.5,91C 105.025,91.4238 107.025,92.5905 108.5,94.5 Z"/></g>
<g><path style="opacity:0.96" fill="#59cf7d" d="M 90.5,92.5 C 94.0909,96.1579 97.0909,100.325 99.5,105C 98.2203,107.132 98.2203,109.298 99.5,111.5C 98.6602,112.735 97.6602,113.735 96.5,114.5C 93.7052,116.751 91.3719,119.418 89.5,122.5C 87.4457,119.764 84.9457,117.431 82,115.5C 81.6667,114.5 81.3333,113.5 81,112.5C 78.6744,110.934 76.5078,109.268 74.5,107.5C 77.6198,103.208 80.9531,99.0413 84.5,95C 86.4068,93.878 88.4068,93.0447 90.5,92.5 Z"/></g>
<g><path style="opacity:0.954" fill="#60d17a" d="M 124.5,92.5 C 130.289,96.7151 135.622,101.382 140.5,106.5C 135.709,116.47 127.876,122.136 117,123.5C 112.844,123.613 109.011,122.613 105.5,120.5C 106.237,112.533 106.737,104.533 107,96.5C 107.717,95.9558 108.217,95.2891 108.5,94.5C 111.744,96.0713 114.411,98.4046 116.5,101.5C 119.189,98.4802 121.856,95.4802 124.5,92.5 Z"/></g>
<g><path style="opacity:0.958" fill="#77d770" d="M 229.5,96.5 C 234.109,102.648 236.776,109.648 237.5,117.5C 235.745,118.072 234.078,118.906 232.5,120C 228.778,120.238 225.111,120.738 221.5,121.5C 219.64,120.74 217.973,119.74 216.5,118.5C 215.808,115.064 214.808,111.73 213.5,108.5C 215.782,104.909 219.116,103.576 223.5,104.5C 223.192,102.076 223.526,99.7427 224.5,97.5C 226.071,96.6906 227.738,96.3573 229.5,96.5 Z"/></g>
<g><path style="opacity:0.942" fill="#55cf7e" d="M 74.5,107.5 C 76.5078,109.268 78.6744,110.934 81,112.5C 81.3333,113.5 81.6667,114.5 82,115.5C 84.9457,117.431 87.4457,119.764 89.5,122.5C 86.1544,127.204 82.8211,131.871 79.5,136.5C 78.9074,133.055 77.9074,129.721 76.5,126.5C 72.8591,124.19 69.5257,121.523 66.5,118.5C 69.1985,114.81 71.8652,111.143 74.5,107.5 Z"/></g>
<g><path style="opacity:0.96" fill="#47cb84" d="M 30.5,112.5 C 33.2585,119.932 37.9252,125.932 44.5,130.5C 44.0825,131.222 43.4158,131.722 42.5,132C 42.8333,132.333 43.1667,132.667 43.5,133C 41.3295,134.586 38.9962,135.92 36.5,137C 35.9152,138.302 35.2485,139.469 34.5,140.5C 32.2459,141.415 30.2459,142.748 28.5,144.5C 20.0996,138.035 14.4329,129.701 11.5,119.5C 12.6138,118.115 13.6138,116.615 14.5,115C 19.897,114.487 25.2304,113.653 30.5,112.5 Z"/></g>
<g><path style="opacity:0.951" fill="#7ad76f" d="M 237.5,117.5 C 239.237,135.8 233.237,150.967 219.5,163C 214.814,166.2 209.814,168.7 204.5,170.5C 204.11,163.002 202.11,156.002 198.5,149.5C 212.013,143.469 218.013,133.135 216.5,118.5C 217.973,119.74 219.64,120.74 221.5,121.5C 225.111,120.738 228.778,120.238 232.5,120C 234.078,118.906 235.745,118.072 237.5,117.5 Z"/></g>
<g><path style="opacity:0.958" fill="#52ce80" d="M 66.5,118.5 C 69.5257,121.523 72.8591,124.19 76.5,126.5C 77.9074,129.721 78.9074,133.055 79.5,136.5C 78.5667,139.37 76.9,141.704 74.5,143.5C 72.3598,140.835 69.8598,138.502 67,136.5C 65.8021,132.76 63.6355,129.76 60.5,127.5C 62.2519,124.328 64.2519,121.328 66.5,118.5 Z"/></g>
<g><path style="opacity:0.956" fill="#4dcd81" d="M 60.5,127.5 C 63.6355,129.76 65.8021,132.76 67,136.5C 69.8598,138.502 72.3598,140.835 74.5,143.5C 62.6879,156.054 49.3546,157.72 34.5,148.5C 34.5,145.833 34.5,143.167 34.5,140.5C 35.2485,139.469 35.9152,138.302 36.5,137C 38.9962,135.92 41.3295,134.586 43.5,133C 43.1667,132.667 42.8333,132.333 42.5,132C 43.4158,131.722 44.0825,131.222 44.5,130.5C 47.9767,132.258 51.6434,132.758 55.5,132C 57.4971,130.807 59.1638,129.307 60.5,127.5 Z"/></g>
<g><path style="opacity:0.864" fill="#e5e7e7" d="M 87.5,137.5 C 95.6681,138.499 98.1681,142.832 95,150.5C 91.5275,153.658 87.6942,154.158 83.5,152C 78.8656,145.452 80.1989,140.618 87.5,137.5 Z"/></g>
<g><path style="opacity:0.89" fill="#d0d3d3" d="M 111.5,137.5 C 119.668,138.499 122.168,142.832 119,150.5C 114.872,154.446 110.705,154.446 106.5,150.5C 103.945,144.291 105.612,139.958 111.5,137.5 Z"/></g>
<g><path style="opacity:0.883" fill="#bbbebf" d="M 135.5,137.5 C 143.197,138.033 146.03,142.033 144,149.5C 139.333,154.833 134.667,154.833 130,149.5C 128.036,143.532 129.869,139.532 135.5,137.5 Z"/></g>
<g><path style="opacity:0.853" fill="#4acc82" d="M 34.5,140.5 C 34.5,143.167 34.5,145.833 34.5,148.5C 32.2048,147.525 30.2048,146.192 28.5,144.5C 30.2459,142.748 32.2459,141.415 34.5,140.5 Z"/></g>
<g><path style="opacity:0.95" fill="#7dd86e" d="M 198.5,149.5 C 202.11,156.002 204.11,163.002 204.5,170.5C 200.123,171.745 195.79,172.745 191.5,173.5C 189.167,173.5 186.833,173.5 184.5,173.5C 174.707,172.279 165.707,168.779 157.5,163C 150.833,157 150.833,151 157.5,145C 161.039,143.496 164.705,143.163 168.5,144C 177.485,151.527 187.485,153.36 198.5,149.5 Z"/></g>
</svg>
