<?xml version="1.0" standalone="no"?>
<!DOCTYPE svg PUBLIC "-//W3C//DTD SVG 20010904//EN"
 "http://www.w3.org/TR/2001/REC-SVG-20010904/DTD/svg10.dtd">
<svg version="1.0" xmlns="http://www.w3.org/2000/svg"
 width="600.000000pt" height="375.000000pt" viewBox="0 0 600.000000 375.000000"
 preserveAspectRatio="xMidYMid meet">
<metadata>
Created by potrace 1.15, written by Peter Selinger 2001-2017
</metadata>
<g transform="translate(0.000000,375.000000) scale(0.100000,-0.100000)"
fill="#000000" stroke="none">
<path d="M1600 3639 c-60 -27 -107 -74 -136 -134 l-24 -50 0 -1580 0 -1580 24
-50 c29 -60 76 -107 136 -134 44 -20 61 -21 940 -21 845 0 897 1 935 19 56 25
101 66 133 120 l27 46 3 567 3 568 -71 0 -70 0 0 -309 c0 -192 -4 -320 -11
-339 -6 -17 -22 -35 -37 -41 -19 -8 -285 -11 -930 -9 l-904 3 -19 24 c-18 23
-19 57 -19 1271 0 1247 0 1247 21 1274 l20 26 918 0 918 0 19 -21 c18 -20 19
-44 22 -415 l3 -394 70 0 70 0 -3 498 -3 497 -27 46 c-32 54 -77 95 -133 120
-38 18 -90 19 -935 19 -879 0 -896 -1 -940 -21z m1118 -125 c12 -8 22 -21 22
-29 0 -8 -10 -21 -22 -29 -18 -13 -53 -16 -178 -16 -125 0 -160 3 -178 16 -28
19 -28 39 0 58 18 13 53 16 178 16 125 0 160 -3 178 -16z m-112 -2975 c103
-49 120 -175 35 -252 -61 -55 -127 -58 -198 -12 -30 20 -63 86 -63 127 0 52
39 110 90 136 55 27 82 28 136 1z"/>
<path d="M3250 2321 c-37 -11 -85 -38 -97 -53 -11 -14 10 -78 26 -78 5 0 29
11 52 25 33 19 59 25 103 25 53 0 61 -3 92 -34 30 -30 34 -40 34 -88 0 -88
-35 -143 -192 -304 -126 -129 -138 -144 -138 -177 l0 -37 230 0 230 0 0 45 0
45 -156 0 -156 0 113 118 c78 81 123 136 143 177 33 68 44 155 26 209 -16 48
-66 105 -107 122 -34 15 -161 17 -203 5z"/>
<path d="M3775 2314 c-61 -22 -71 -36 -55 -76 8 -18 14 -34 16 -36 1 -2 20 6
41 16 55 28 106 36 147 22 70 -23 96 -92 55 -144 -29 -36 -64 -53 -132 -61
l-57 -7 0 -39 0 -39 57 0 c102 0 175 -56 175 -134 0 -46 -27 -93 -65 -113 -45
-24 -139 -22 -200 5 l-48 21 -8 -22 c-23 -61 -23 -62 16 -82 48 -23 204 -33
259 -15 61 19 112 59 134 104 27 56 27 149 1 192 -21 34 -80 84 -99 84 -21 0
-13 15 18 32 52 29 72 73 68 150 -3 58 -8 71 -33 99 -17 17 -44 38 -62 45 -42
18 -176 17 -228 -2z"/>
<path d="M2149 2218 l-14 -103 -52 -3 -53 -3 0 -35 c0 -34 0 -34 46 -34 l46 0
-7 -67 c-4 -38 -9 -71 -12 -75 -2 -5 -24 -8 -49 -8 -44 0 -44 0 -44 -35 0 -34
1 -35 41 -35 l42 0 -7 -47 c-3 -27 -9 -74 -12 -105 l-7 -58 36 0 c40 0 41 1
52 95 14 120 12 115 66 115 56 0 54 9 35 -122 l-12 -88 37 0 c41 0 41 0 54
105 13 108 11 105 66 105 l49 0 0 35 c0 35 0 35 -46 35 l-45 0 6 58 c11 93 10
92 66 92 l49 0 0 35 c0 35 0 35 -45 35 -52 0 -50 -8 -31 123 l12 87 -37 0
c-41 0 -40 1 -54 -115 -12 -98 -10 -95 -65 -95 -28 0 -50 2 -50 4 0 12 21 164
25 184 5 20 2 22 -33 22 l-39 0 -14 -102z m147 -235 c-11 -94 -11 -93 -67 -93
-50 0 -51 0 -45 28 2 15 8 48 11 75 l6 47 51 0 50 0 -6 -57z"/>
<path d="M2702 2282 l-73 -37 6 -35 c4 -19 10 -39 15 -44 5 -5 33 6 64 24 l56
31 0 -305 0 -306 50 0 50 0 0 355 0 355 -47 -1 c-35 0 -69 -11 -121 -37z"/>
<path d="M4379 2218 l-14 -103 -52 -3 -53 -3 0 -35 c0 -34 0 -34 46 -34 l46 0
-7 -67 c-4 -38 -9 -71 -12 -75 -2 -5 -24 -8 -49 -8 -44 0 -44 0 -44 -35 0 -34
1 -35 41 -35 l42 0 -7 -47 c-3 -27 -9 -74 -12 -105 l-7 -58 36 0 c40 0 41 1
52 95 14 120 12 115 66 115 56 0 54 9 35 -122 l-12 -88 37 0 c41 0 41 0 54
105 13 108 11 105 66 105 l49 0 0 35 c0 35 0 35 -46 35 l-45 0 6 58 c11 93 10
92 66 92 l49 0 0 35 c0 35 0 35 -45 35 -52 0 -50 -8 -31 123 l12 87 -37 0
c-41 0 -40 1 -54 -115 -12 -98 -10 -95 -65 -95 -28 0 -50 2 -50 4 0 12 21 164
25 184 5 20 2 22 -33 22 l-39 0 -14 -102z m147 -235 c-11 -94 -11 -93 -67 -93
-50 0 -51 0 -45 28 2 15 8 48 11 75 l6 47 51 0 50 0 -6 -57z"/>
</g>
</svg>
